<svg width="46" height="51" viewBox="0 0 46 51" fill="none" xmlns="http://www.w3.org/2000/svg">
<g clip-path="url(#clip0_0:28)">
<path d="M28.3515 33.845C27.3237 33.8043 26.3162 33.6096 25.2985 33.4404C24.7757 33.3527 24.2566 33.2509 23.7376 33.1517C23.2822 33.0639 23.244 33.0245 23.3382 32.5602C23.4527 32.0106 23.5824 31.4649 23.7198 30.9217C24.0327 29.6941 23.7796 28.5861 23.1029 27.5315C22.0483 25.8893 20.7685 24.4416 19.368 23.0932C18.087 21.858 16.792 20.6381 15.2795 19.6776C15.1475 19.5958 15.0442 19.4749 14.984 19.3318C14.9239 19.1886 14.9097 19.0303 14.9436 18.8787C14.9873 18.5623 15.0979 18.2587 15.268 17.9883C16.3658 16.2671 17.7715 14.8627 19.63 13.9786C21.5534 13.0627 23.5443 13.1136 25.5504 13.6975C27.0769 14.1427 28.4762 14.8551 29.8348 15.6756C30.3907 16.0127 30.9593 16.318 31.631 16.3358C32.7212 16.3651 33.2236 15.7443 33.0036 14.6694C32.8496 13.9176 32.4591 13.2968 31.9706 12.7294C31.0051 11.6049 29.845 10.6941 28.6632 9.81251C27.4445 8.89533 26.2182 7.98578 25.1395 6.90195C24.9525 6.71368 24.7833 6.51014 24.6128 6.30788C23.8572 5.41741 23.7504 4.43535 24.2516 3.38206C24.6535 2.5323 25.142 1.74232 25.8442 1.10755C26.1755 0.799543 26.5746 0.573865 27.0093 0.448779C27.444 0.323693 27.9021 0.302715 28.3464 0.387541C29.0334 0.498214 29.2624 0.846768 29.1453 1.5248C29.0424 2.03356 28.8743 2.52696 28.6454 2.9928C28.4811 3.33714 28.3433 3.69351 28.2332 4.05881C28.1811 4.23691 28.1787 4.42586 28.2262 4.60524C28.2738 4.78461 28.3694 4.94757 28.5029 5.07649C28.7998 5.37075 29.1416 5.61593 29.5155 5.80286C31.0764 6.68315 32.7225 7.38916 34.3202 8.1944C35.3125 8.67359 36.2572 9.24562 37.1417 9.90283C38.3451 10.8276 39.0384 12.1061 39.6223 13.4558C40.1311 14.6185 40.5026 15.8168 40.5217 17.1016C40.5217 17.2619 40.5471 17.4349 40.7138 17.51C40.9033 17.5952 41.042 17.4578 41.159 17.3408C41.6081 16.8981 41.9299 16.36 42.253 15.8257C42.6001 15.2434 42.9941 14.6904 43.4309 14.172C43.8367 13.6988 44.1726 13.6224 44.759 13.8514C45.6571 14.2038 46.1087 15.009 45.9243 15.9542C45.7398 16.8994 45.2882 17.7568 44.7552 18.5467C41.8294 22.9037 38.2014 26.5444 33.7325 29.3188C33.0506 29.7412 32.3052 30.0592 31.5903 30.4294C31.4211 30.5159 31.2557 30.6113 31.0903 30.708C30.6375 30.9726 30.4174 31.3084 30.5268 31.8847C30.7163 32.8794 29.9022 33.7674 28.7993 33.8437C28.6492 33.8539 28.4978 33.845 28.3515 33.845ZM28.9685 19.2515C29.7762 19.2242 30.5736 19.439 31.2583 19.8684C31.472 19.9834 31.694 20.0825 31.9223 20.1648C32.0177 20.203 32.1398 20.259 32.2123 20.1483C32.2848 20.0376 32.1869 19.9626 32.1233 19.8939C32.0076 19.7713 31.8798 19.6609 31.7417 19.5644C30.766 18.9347 29.7267 18.4259 28.5919 18.1816C27.4929 17.945 26.3963 18.0226 25.4117 18.6396C24.8291 19.0047 24.347 19.4766 24.1014 20.1419C24.0569 20.2691 24.0162 20.3964 24.1104 20.5032C24.2045 20.6101 24.3279 20.5503 24.436 20.5223C24.8131 20.4178 25.1778 20.2728 25.5237 20.0898C26.5731 19.5708 27.6735 19.2273 28.9685 19.2515ZM30.2495 21.3988C30.2495 20.7042 30.2495 20.7042 29.5893 20.9039L29.3781 20.9701C28.4835 21.2745 27.5249 21.3399 26.5973 21.1596C26.4411 21.1318 26.2827 21.1186 26.1241 21.1202C25.9116 21.1202 25.8226 21.2207 25.8697 21.4471C25.9587 21.9844 26.2316 22.4741 26.6418 22.8324C26.9721 23.1267 27.3797 23.3205 27.8165 23.3908C28.2533 23.4611 28.7011 23.4051 29.1072 23.2293C29.9149 22.9126 30.2584 22.2536 30.2495 21.3988Z" fill="white"/>
<path d="M12.3577 48.9132C11.2408 48.8814 9.87203 48.9234 8.54905 48.6041C5.34718 47.8294 3.02181 45.9772 1.67212 42.9204C0.773739 40.9333 0.409781 38.7461 0.616272 36.5751C0.990269 32.5948 2.71014 29.2262 5.32303 26.2712C6.00763 25.4905 6.73736 24.7505 7.50849 24.0552C7.62933 23.9483 7.74637 23.7473 7.92446 23.8351C8.10256 23.9229 8.03004 24.1366 8.03894 24.3019C8.04213 24.3337 8.04213 24.3656 8.03894 24.3974C7.7947 25.6058 8.44603 26.4213 9.26653 27.1464C10.4801 28.2175 11.8896 28.9845 13.3665 29.6015C16.0161 30.7031 18.5957 31.9661 21.0907 33.3835C22.3551 34.1035 23.6883 34.6759 25.1614 34.8489C26.2493 34.9596 27.3483 34.8493 28.3925 34.5245C29.1863 34.2943 29.9737 34.0462 30.7637 33.8071C30.845 33.7827 30.9279 33.764 31.0118 33.7511C31.3476 33.7015 31.4621 33.8223 31.2954 34.1124C30.6759 35.1886 29.9724 36.1808 28.7067 36.598C27.6649 36.9415 26.5874 37.098 25.5138 37.2837C24.36 37.4834 23.2405 37.7925 22.2546 38.4655C21.1314 39.2287 20.5462 40.3418 20.1811 41.6037C19.8847 42.6214 19.9038 43.6773 19.9063 44.7242C19.8938 45.6355 19.9813 46.5454 20.1671 47.4376C20.246 47.7861 20.1468 47.9591 19.7779 48.1372C19.1596 48.4362 18.4905 48.5519 17.8201 48.6537C16.0862 48.9183 14.3422 48.9577 12.3577 48.9132Z" fill="white"/>
<path d="M22.854 30.2018C22.8426 30.9383 22.7345 31.6583 22.405 32.3262C22.1582 32.8236 21.8962 32.8935 21.4446 32.573C20.8225 32.1328 20.2628 31.6138 19.6293 31.1838C18.4641 30.3939 17.1703 29.8634 15.9148 29.2503C14.2318 28.4298 12.4979 27.7098 10.8849 26.7493C10.1649 26.3206 9.56826 25.7787 9.46904 24.8704C9.36725 24.0811 9.51892 23.2797 9.90213 22.5822C10.2853 21.8846 10.8803 21.3268 11.6011 20.9893C12.2913 20.663 13.029 20.4483 13.7866 20.3532C14.3616 20.2693 14.8259 20.5682 15.28 20.8735C16.6259 21.7805 17.7606 22.9254 18.8813 24.0703C20.0266 25.2315 21.0953 26.4659 22.0806 27.7657C22.6075 28.4664 22.8803 29.3255 22.854 30.2018Z" fill="white"/>
<path d="M24.707 39.193C26.0618 39.31 27.1406 39.9168 27.8873 41.0655C28.5729 42.1201 28.9495 43.3133 29.1759 44.5294C29.4189 45.8372 30.0562 46.893 30.9098 47.8598C31.2914 48.2885 31.6731 48.7172 31.9389 49.2273C32.2684 49.8443 32.1717 50.1178 31.5268 50.3862C30.7152 50.7156 29.8539 50.8238 28.994 50.9484C27.4548 51.1711 26.1229 50.5923 24.8063 49.9308C24.1098 49.5711 23.4417 49.1591 22.8078 48.6981C21.8067 47.9921 21.3614 47.0266 21.3474 45.8219C21.3335 44.6579 21.2762 43.4952 21.3474 42.33C21.3894 41.5998 21.6019 40.9727 22.1603 40.4676C22.6691 40.0033 23.1894 39.553 23.8611 39.3227C24.1328 39.2282 24.4195 39.1842 24.707 39.193Z" fill="white"/>
<path d="M34.5859 49.7325C34.0466 49.7325 33.8621 49.6053 33.7412 49.1727C33.6613 48.9417 33.5259 48.7338 33.3469 48.5672C32.9971 48.2138 32.6281 47.88 32.2414 47.5674C31.6457 47.0631 31.251 46.3615 31.1296 45.5905C30.9057 44.3057 30.6208 43.0374 29.944 41.9014C29.4606 41.0937 28.7902 40.4423 28.1784 39.7389C27.7408 39.2389 27.728 39.2173 28.3463 39.0379C29.6883 38.65 30.7442 37.8638 31.6181 36.7965C31.8905 36.4725 32.1824 36.1654 32.492 35.8768C32.7134 35.6682 32.8813 35.6847 33.0747 35.9086C34.3951 37.4351 35.4077 39.1295 35.8097 41.1369C36.0297 42.2373 36.2384 43.3389 36.7001 44.3693C36.8362 44.667 37.0067 44.9481 37.1606 45.2381C37.9035 46.6375 37.7712 47.5839 36.6454 48.697C36.0552 49.2834 35.3441 49.6612 34.5859 49.7325Z" fill="white"/>
</g>
<defs>
<clipPath id="clip0_0:28">
<rect width="45.4024" height="50.6587" fill="white" transform="translate(0.559296 0.337891)"/>
</clipPath>
</defs>
</svg>
