<svg width="45" height="45" viewBox="0 0 45 45" fill="none" xmlns="http://www.w3.org/2000/svg">
<circle cx="22.5" cy="22.5" r="22.5" fill="white" fill-opacity="0.1"/>
<path d="M30.2286 16.6633C28.4971 15.2515 25.7593 15.0123 25.6436 15.0021C25.4607 14.9862 25.2871 15.0913 25.2121 15.2609C25.2093 15.2667 25.0564 15.7167 24.9086 16.1509C26.9207 16.5082 28.2879 17.301 28.3607 17.3445C28.7021 17.546 28.8164 17.9903 28.6171 18.336C28.485 18.5664 28.2457 18.6954 28 18.6954C27.8779 18.6954 27.755 18.6643 27.6421 18.5976C27.6221 18.5853 25.6164 17.4271 23.0014 17.4271C20.3857 17.4271 18.3793 18.586 18.3593 18.5976C18.0186 18.7984 17.5814 18.6802 17.3836 18.3338C17.1857 17.9888 17.3007 17.546 17.6407 17.3445C17.7136 17.301 19.0857 16.5053 21.1036 16.1487C20.9479 15.7095 20.7907 15.2667 20.7879 15.2609C20.7129 15.0906 20.5393 14.9833 20.3564 15.0021C20.2407 15.0116 17.5029 15.2507 15.7486 16.6821C14.8314 17.5416 13 22.567 13 26.9119C13 26.9887 13.0193 27.0633 13.0571 27.13C14.3221 29.384 17.7707 29.9739 18.5564 29.9993C18.5614 30 18.5657 30 18.57 30C18.7086 30 18.8393 29.9326 18.9214 29.8188L19.7714 28.6505C17.9071 28.1947 16.9214 27.4779 16.8621 27.4337C16.545 27.1967 16.4764 26.743 16.71 26.4205C16.9429 26.0994 17.3886 26.0284 17.7057 26.2639C17.7321 26.2813 19.5514 27.5736 23 27.5736C26.4621 27.5736 28.2764 26.2763 28.2943 26.2632C28.6114 26.0299 29.0586 26.1002 29.2907 26.4234C29.5221 26.7452 29.455 27.196 29.1393 27.4322C29.08 27.4764 28.0993 28.1918 26.2393 28.6476L27.0786 29.8181C27.1607 29.9326 27.2914 29.9993 27.43 29.9993C27.435 29.9993 27.4393 29.9993 27.4436 29.9986C28.23 29.9732 31.6786 29.3832 32.9429 27.1293C32.9807 27.0626 33 26.988 33 26.9111C33 22.567 31.1686 17.5416 30.2286 16.6633ZM20.1429 25.3993C19.3536 25.3993 18.7143 24.5883 18.7143 23.5875C18.7143 22.5866 19.3536 21.7756 20.1429 21.7756C20.9321 21.7756 21.5714 22.5866 21.5714 23.5875C21.5714 24.5883 20.9321 25.3993 20.1429 25.3993ZM25.8571 25.3993C25.0679 25.3993 24.4286 24.5883 24.4286 23.5875C24.4286 22.5866 25.0679 21.7756 25.8571 21.7756C26.6464 21.7756 27.2857 22.5866 27.2857 23.5875C27.2857 24.5883 26.6464 25.3993 25.8571 25.3993Z" fill="white"/>
</svg>
