<svg width="45" height="45" viewBox="0 0 45 45" fill="none" xmlns="http://www.w3.org/2000/svg">
<circle cx="22.5" cy="22.5" r="22.5" fill="white" fill-opacity="0.1"/>
<path d="M33.0555 15.8765C32.3283 16.1947 31.5534 16.4056 30.7455 16.508C31.5767 16.013 32.211 15.2351 32.5092 14.2975C31.7343 14.7584 30.8788 15.0839 29.967 15.2656C29.2312 14.484 28.1825 14 27.0385 14C24.819 14 23.0321 15.7972 23.0321 18.0004C23.0321 18.3174 23.059 18.6222 23.125 18.9124C19.792 18.7503 16.8428 17.1567 14.8616 14.7291C14.5157 15.3278 14.3128 16.013 14.3128 16.7507C14.3128 18.1358 15.0278 19.3636 16.0936 20.0744C15.4494 20.0622 14.8176 19.8756 14.2822 19.5818C14.2822 19.594 14.2822 19.6098 14.2822 19.6257C14.2822 21.5692 15.6719 23.1835 17.4942 23.5554C17.1679 23.6444 16.8122 23.6871 16.4431 23.6871C16.1864 23.6871 15.9273 23.6724 15.6841 23.6188C16.2036 25.2026 17.6776 26.367 19.4302 26.4048C18.0662 27.4692 16.3343 28.1106 14.4594 28.1106C14.1307 28.1106 13.8153 28.0959 13.5 28.0557C15.2759 29.1982 17.3806 29.8505 19.6502 29.8505C27.0275 29.8505 31.0609 23.7541 31.0609 18.4698C31.0609 18.293 31.0548 18.1223 31.0462 17.9529C31.8419 17.3896 32.5104 16.686 33.0555 15.8765Z" fill="white"/>
</svg>
